<mxfile host="Electron" modified="2023-07-05T23:16:42.896Z" agent="Mozilla/5.0 (Windows NT 10.0; Win64; x64) AppleWebKit/537.36 (KHTML, like Gecko) draw.io/21.6.1 Chrome/112.0.5615.204 Electron/24.6.1 Safari/537.36" etag="FQ_IAq35WMDodgrv06Ag" version="21.6.1" type="device">
  <diagram name="Page-1" id="XBfEDEID9JyexvIhzsEc">
    <mxGraphModel dx="1934" dy="984" grid="1" gridSize="10" guides="1" tooltips="1" connect="1" arrows="1" fold="1" page="1" pageScale="1" pageWidth="850" pageHeight="1100" math="0" shadow="0">
      <root>
        <mxCell id="0" />
        <mxCell id="1" parent="0" />
        <mxCell id="zcr2nq0jHQ1TIpG8WMRD-62" style="edgeStyle=orthogonalEdgeStyle;rounded=0;orthogonalLoop=1;jettySize=auto;html=1;entryX=0;entryY=0.5;entryDx=0;entryDy=0;entryPerimeter=0;" edge="1" parent="1" source="P8DohW_lNPd4JbUcSrj9-4" target="P8DohW_lNPd4JbUcSrj9-9">
          <mxGeometry relative="1" as="geometry" />
        </mxCell>
        <mxCell id="P8DohW_lNPd4JbUcSrj9-4" value="&lt;b&gt;SQL Database 1&lt;/b&gt;" style="shape=datastore;whiteSpace=wrap;html=1;" parent="1" vertex="1">
          <mxGeometry x="21" y="115" width="80" height="80" as="geometry" />
        </mxCell>
        <mxCell id="zcr2nq0jHQ1TIpG8WMRD-59" value="" style="edgeStyle=orthogonalEdgeStyle;rounded=0;orthogonalLoop=1;jettySize=auto;html=1;entryX=0;entryY=0.5;entryDx=0;entryDy=0;entryPerimeter=0;" edge="1" parent="1" source="P8DohW_lNPd4JbUcSrj9-5" target="P8DohW_lNPd4JbUcSrj9-15">
          <mxGeometry relative="1" as="geometry">
            <mxPoint x="160" y="264.9999999999998" as="targetPoint" />
          </mxGeometry>
        </mxCell>
        <mxCell id="zcr2nq0jHQ1TIpG8WMRD-61" value="SQL&lt;br&gt;Alchemy&lt;br&gt;Connection" style="edgeLabel;html=1;align=center;verticalAlign=middle;resizable=0;points=[];" vertex="1" connectable="0" parent="zcr2nq0jHQ1TIpG8WMRD-59">
          <mxGeometry x="-0.1576" y="-4" relative="1" as="geometry">
            <mxPoint x="5" y="-4" as="offset" />
          </mxGeometry>
        </mxCell>
        <mxCell id="P8DohW_lNPd4JbUcSrj9-5" value="&lt;b&gt;SQL Database 2&lt;/b&gt;" style="shape=datastore;whiteSpace=wrap;html=1;" parent="1" vertex="1">
          <mxGeometry x="21" y="225" width="80" height="80" as="geometry" />
        </mxCell>
        <mxCell id="zcr2nq0jHQ1TIpG8WMRD-64" style="edgeStyle=orthogonalEdgeStyle;rounded=0;orthogonalLoop=1;jettySize=auto;html=1;entryX=0;entryY=0.5;entryDx=0;entryDy=0;entryPerimeter=0;" edge="1" parent="1" source="P8DohW_lNPd4JbUcSrj9-6" target="P8DohW_lNPd4JbUcSrj9-21">
          <mxGeometry relative="1" as="geometry" />
        </mxCell>
        <mxCell id="P8DohW_lNPd4JbUcSrj9-6" value="&lt;b&gt;NoSQL Database 1&lt;/b&gt;" style="shape=datastore;whiteSpace=wrap;html=1;" parent="1" vertex="1">
          <mxGeometry x="21" y="441.25" width="80" height="80" as="geometry" />
        </mxCell>
        <mxCell id="n6MR5Z1LDaBKKRsh-3N_-26" value="" style="points=[[0.13,0.02,0],[0.5,0,0],[0.87,0.02,0],[0.885,0.4,0],[0.985,0.985,0],[0.5,1,0],[0.015,0.985,0],[0.115,0.4,0]];verticalLabelPosition=bottom;sketch=0;html=1;verticalAlign=top;aspect=fixed;align=center;pointerEvents=1;shape=mxgraph.cisco19.laptop;fillColor=#005073;strokeColor=none;fontSize=14;" parent="1" vertex="1">
          <mxGeometry x="740" y="270" width="171.42" height="120" as="geometry" />
        </mxCell>
        <mxCell id="n6MR5Z1LDaBKKRsh-3N_-27" value="&lt;font style=&quot;font-size: 16px;&quot;&gt;API Server&lt;/font&gt;" style="points=[[0,0],[0.25,0],[0.5,0],[0.75,0],[1,0],[1,0.25],[1,0.5],[1,0.75],[1,1],[0.75,1],[0.5,1],[0.25,1],[0,1],[0,0.75],[0,0.5],[0,0.25]];outlineConnect=0;gradientColor=none;html=1;whiteSpace=wrap;fontSize=12;fontStyle=0;container=1;pointerEvents=0;collapsible=0;recursiveResize=0;shape=mxgraph.aws4.group;grIcon=mxgraph.aws4.group_on_premise;strokeColor=#5A6C86;fillColor=none;verticalAlign=top;align=left;spacingLeft=30;fontColor=#5A6C86;dashed=0;" parent="1" vertex="1">
          <mxGeometry x="240" y="40" width="320" height="580" as="geometry" />
        </mxCell>
        <mxCell id="P8DohW_lNPd4JbUcSrj9-19" value="Dataset 2" style="swimlane;" parent="n6MR5Z1LDaBKKRsh-3N_-27" vertex="1">
          <mxGeometry x="30" y="316.25" width="260" height="227.5" as="geometry" />
        </mxCell>
        <mxCell id="P8DohW_lNPd4JbUcSrj9-20" value="" style="edgeStyle=orthogonalEdgeStyle;rounded=0;orthogonalLoop=1;jettySize=auto;html=1;" parent="P8DohW_lNPd4JbUcSrj9-19" source="P8DohW_lNPd4JbUcSrj9-21" target="P8DohW_lNPd4JbUcSrj9-24" edge="1">
          <mxGeometry relative="1" as="geometry" />
        </mxCell>
        <mxCell id="P8DohW_lNPd4JbUcSrj9-21" value="Database2_&lt;br&gt;view_1" style="shape=note;whiteSpace=wrap;html=1;backgroundOutline=1;darkOpacity=0.05;" parent="P8DohW_lNPd4JbUcSrj9-19" vertex="1">
          <mxGeometry x="30" y="80" width="70" height="90" as="geometry" />
        </mxCell>
        <mxCell id="P8DohW_lNPd4JbUcSrj9-24" value="Final2_view_1" style="shape=note;whiteSpace=wrap;html=1;backgroundOutline=1;darkOpacity=0.05;" parent="P8DohW_lNPd4JbUcSrj9-19" vertex="1">
          <mxGeometry x="155" y="75" width="80" height="100" as="geometry" />
        </mxCell>
        <mxCell id="P8DohW_lNPd4JbUcSrj9-13" value="Dataset 1" style="swimlane;" parent="n6MR5Z1LDaBKKRsh-3N_-27" vertex="1">
          <mxGeometry x="30" y="40" width="260" height="250" as="geometry" />
        </mxCell>
        <mxCell id="P8DohW_lNPd4JbUcSrj9-18" value="" style="edgeStyle=orthogonalEdgeStyle;rounded=0;orthogonalLoop=1;jettySize=auto;html=1;" parent="P8DohW_lNPd4JbUcSrj9-13" source="P8DohW_lNPd4JbUcSrj9-9" target="P8DohW_lNPd4JbUcSrj9-16" edge="1">
          <mxGeometry relative="1" as="geometry" />
        </mxCell>
        <mxCell id="P8DohW_lNPd4JbUcSrj9-9" value="Database_&lt;br&gt;view_1" style="shape=note;whiteSpace=wrap;html=1;backgroundOutline=1;darkOpacity=0.05;" parent="P8DohW_lNPd4JbUcSrj9-13" vertex="1">
          <mxGeometry x="20" y="30" width="70" height="90" as="geometry" />
        </mxCell>
        <mxCell id="P8DohW_lNPd4JbUcSrj9-17" value="" style="edgeStyle=orthogonalEdgeStyle;rounded=0;orthogonalLoop=1;jettySize=auto;html=1;" parent="P8DohW_lNPd4JbUcSrj9-13" source="P8DohW_lNPd4JbUcSrj9-15" target="P8DohW_lNPd4JbUcSrj9-16" edge="1">
          <mxGeometry relative="1" as="geometry" />
        </mxCell>
        <mxCell id="P8DohW_lNPd4JbUcSrj9-15" value="Database_&lt;br&gt;view_2" style="shape=note;whiteSpace=wrap;html=1;backgroundOutline=1;darkOpacity=0.05;" parent="P8DohW_lNPd4JbUcSrj9-13" vertex="1">
          <mxGeometry x="20" y="140" width="70" height="90" as="geometry" />
        </mxCell>
        <mxCell id="P8DohW_lNPd4JbUcSrj9-16" value="Final_view_1" style="shape=note;whiteSpace=wrap;html=1;backgroundOutline=1;darkOpacity=0.05;" parent="P8DohW_lNPd4JbUcSrj9-13" vertex="1">
          <mxGeometry x="155" y="75" width="80" height="100" as="geometry" />
        </mxCell>
        <mxCell id="P8DohW_lNPd4JbUcSrj9-35" style="edgeStyle=orthogonalEdgeStyle;rounded=0;orthogonalLoop=1;jettySize=auto;html=1;exitX=0.5;exitY=1;exitDx=0;exitDy=0;exitPerimeter=0;" parent="P8DohW_lNPd4JbUcSrj9-13" source="P8DohW_lNPd4JbUcSrj9-16" target="P8DohW_lNPd4JbUcSrj9-16" edge="1">
          <mxGeometry relative="1" as="geometry" />
        </mxCell>
        <mxCell id="n6MR5Z1LDaBKKRsh-3N_-38" value="&lt;font style=&quot;font-size: 16px;&quot;&gt;&lt;b&gt;Client&lt;/b&gt;&lt;/font&gt;" style="text;html=1;align=center;verticalAlign=middle;resizable=0;points=[];autosize=1;strokeColor=none;fillColor=none;" parent="1" vertex="1">
          <mxGeometry x="790.71" y="230" width="70" height="30" as="geometry" />
        </mxCell>
        <mxCell id="zcr2nq0jHQ1TIpG8WMRD-55" value="" style="endArrow=classic;startArrow=classic;html=1;rounded=0;" edge="1" parent="1">
          <mxGeometry width="50" height="50" relative="1" as="geometry">
            <mxPoint x="590" y="329.69" as="sourcePoint" />
            <mxPoint x="730" y="329" as="targetPoint" />
          </mxGeometry>
        </mxCell>
        <mxCell id="zcr2nq0jHQ1TIpG8WMRD-63" value="SQL&lt;br&gt;Alchemy&lt;br&gt;Connection" style="edgeLabel;html=1;align=center;verticalAlign=middle;resizable=0;points=[];" vertex="1" connectable="0" parent="1">
          <mxGeometry x="179.99588235294098" y="155.00000000000023" as="geometry" />
        </mxCell>
        <mxCell id="zcr2nq0jHQ1TIpG8WMRD-65" value="Python&amp;nbsp;&lt;br&gt;Database&lt;br&gt;Connection" style="edgeLabel;html=1;align=center;verticalAlign=middle;resizable=0;points=[];" vertex="1" connectable="0" parent="1">
          <mxGeometry x="179.99588235294098" y="510.0000000000002" as="geometry">
            <mxPoint x="6" y="-27" as="offset" />
          </mxGeometry>
        </mxCell>
      </root>
    </mxGraphModel>
  </diagram>
</mxfile>
